<mxfile host="Electron" modified="2023-10-23T16:16:50.833Z" agent="Mozilla/5.0 (Windows NT 10.0; Win64; x64) AppleWebKit/537.36 (KHTML, like Gecko) draw.io/22.0.3 Chrome/114.0.5735.289 Electron/25.8.4 Safari/537.36" etag="0xfK49RB8HtFNtzEXWPb" version="22.0.3" type="device">
  <diagram name="Strona-1" id="Vt5CrnJrmhm6w_x-jOkX">
    <mxGraphModel dx="1350" dy="791" grid="1" gridSize="10" guides="1" tooltips="1" connect="1" arrows="1" fold="1" page="1" pageScale="1" pageWidth="2336" pageHeight="1654" math="0" shadow="0">
      <root>
        <mxCell id="0" />
        <mxCell id="1" parent="0" />
        <mxCell id="pc3H7Vz2aSoduVJGx9uI-5" value="Main" style="swimlane;fontStyle=1;align=center;verticalAlign=top;childLayout=stackLayout;horizontal=1;startSize=26;horizontalStack=0;resizeParent=1;resizeParentMax=0;resizeLast=0;collapsible=1;marginBottom=0;whiteSpace=wrap;html=1;" parent="1" vertex="1">
          <mxGeometry x="10" y="90" width="370" height="248" as="geometry" />
        </mxCell>
        <mxCell id="pc3H7Vz2aSoduVJGx9uI-6" value="-&amp;nbsp;&lt;u&gt;FILENAME&lt;/u&gt;: String&lt;br&gt;-&amp;nbsp;&lt;u&gt;currencyParser&lt;/u&gt;:&amp;nbsp;Function&amp;lt;XmlEntity, Set&amp;lt;ICurrency&amp;gt;&amp;gt;&lt;br&gt;- &lt;u&gt;dataReader:&lt;/u&gt;&amp;nbsp;DataReader&amp;lt;Set&amp;lt;ICurrency&amp;gt;, String&amp;gt;&lt;br&gt;- &lt;u&gt;currencyRepository&lt;/u&gt;: Repository&lt;br&gt;&lt;span style=&quot;background-color: initial;&quot;&gt;- &lt;u&gt;context: &lt;/u&gt;Context&lt;br&gt;- &lt;u&gt;possibleOptionsPrinter&lt;/u&gt;: Consumer&amp;lt;List&amp;lt;InputOptionsEnum&amp;gt;&amp;gt;&lt;br&gt;- &lt;u&gt;successfullInputHandler&lt;/u&gt;: InputHandler&lt;br&gt;- &lt;u&gt;failureInputHandler&lt;/u&gt;: InputHandler&lt;br&gt;- &lt;u&gt;programRunner&lt;/u&gt;: ProgramRunner&lt;br&gt;- &lt;u&gt;exchangeCurrencyAction&lt;/u&gt;: Function&amp;lt;Context, ProcessingState&amp;gt;&lt;br&gt;- &lt;u&gt;isShortenedNamePredicate&lt;/u&gt;: Predicate&amp;lt;String&amp;gt;&lt;br&gt;&lt;/span&gt;" style="text;strokeColor=none;fillColor=none;align=left;verticalAlign=top;spacingLeft=4;spacingRight=4;overflow=hidden;rotatable=0;points=[[0,0.5],[1,0.5]];portConstraint=eastwest;whiteSpace=wrap;html=1;" parent="pc3H7Vz2aSoduVJGx9uI-5" vertex="1">
          <mxGeometry y="26" width="370" height="174" as="geometry" />
        </mxCell>
        <mxCell id="pc3H7Vz2aSoduVJGx9uI-7" value="" style="line;strokeWidth=1;fillColor=none;align=left;verticalAlign=middle;spacingTop=-1;spacingLeft=3;spacingRight=3;rotatable=0;labelPosition=right;points=[];portConstraint=eastwest;strokeColor=inherit;" parent="pc3H7Vz2aSoduVJGx9uI-5" vertex="1">
          <mxGeometry y="200" width="370" height="8" as="geometry" />
        </mxCell>
        <mxCell id="pc3H7Vz2aSoduVJGx9uI-8" value="+ main(String[]): void&lt;br&gt;- &lt;u&gt;createProgramRunner&lt;/u&gt;(): ProgramRunner" style="text;strokeColor=none;fillColor=none;align=left;verticalAlign=top;spacingLeft=4;spacingRight=4;overflow=hidden;rotatable=0;points=[[0,0.5],[1,0.5]];portConstraint=eastwest;whiteSpace=wrap;html=1;" parent="pc3H7Vz2aSoduVJGx9uI-5" vertex="1">
          <mxGeometry y="208" width="370" height="40" as="geometry" />
        </mxCell>
        <mxCell id="pc3H7Vz2aSoduVJGx9uI-10" value="" style="endArrow=classic;dashed=1;html=1;dashPattern=1 3;strokeWidth=2;rounded=0;startArrow=none;startFill=0;endFill=1;entryX=0.611;entryY=-0.044;entryDx=0;entryDy=0;entryPerimeter=0;" parent="1" edge="1" target="pc3H7Vz2aSoduVJGx9uI-11">
          <mxGeometry width="50" height="50" relative="1" as="geometry">
            <mxPoint x="380" y="210" as="sourcePoint" />
            <mxPoint x="446.5" y="310" as="targetPoint" />
            <Array as="points">
              <mxPoint x="447" y="210" />
            </Array>
          </mxGeometry>
        </mxCell>
        <mxCell id="GxNj5G7-c9G8TD5QoxdH-60" value="create" style="edgeLabel;html=1;align=center;verticalAlign=middle;resizable=0;points=[];" vertex="1" connectable="0" parent="pc3H7Vz2aSoduVJGx9uI-10">
          <mxGeometry x="0.2919" y="3" relative="1" as="geometry">
            <mxPoint as="offset" />
          </mxGeometry>
        </mxCell>
        <mxCell id="pc3H7Vz2aSoduVJGx9uI-11" value="&amp;lt;&amp;lt;interface&amp;gt;&amp;gt;&lt;br&gt;ProgramRunner&lt;br&gt;" style="swimlane;fontStyle=1;align=center;verticalAlign=top;childLayout=stackLayout;horizontal=1;startSize=40;horizontalStack=0;resizeParent=1;resizeParentMax=0;resizeLast=0;collapsible=1;marginBottom=0;whiteSpace=wrap;html=1;movable=1;resizable=1;rotatable=1;deletable=1;editable=1;locked=0;connectable=1;swimlaneLine=1;" parent="1" vertex="1">
          <mxGeometry x="350" y="390" width="163" height="70" as="geometry">
            <mxRectangle x="400" y="400" width="130" height="40" as="alternateBounds" />
          </mxGeometry>
        </mxCell>
        <mxCell id="pc3H7Vz2aSoduVJGx9uI-14" value="+ run(): void" style="text;strokeColor=none;fillColor=none;align=left;verticalAlign=top;spacingLeft=4;spacingRight=4;overflow=hidden;rotatable=0;points=[[0,0.5],[1,0.5]];portConstraint=eastwest;whiteSpace=wrap;html=1;" parent="pc3H7Vz2aSoduVJGx9uI-11" vertex="1">
          <mxGeometry y="40" width="163" height="30" as="geometry" />
        </mxCell>
        <mxCell id="pc3H7Vz2aSoduVJGx9uI-16" value="CurrencyProgramRunner" style="swimlane;fontStyle=1;align=center;verticalAlign=top;childLayout=stackLayout;horizontal=1;startSize=26;horizontalStack=0;resizeParent=1;resizeParentMax=0;resizeLast=0;collapsible=1;marginBottom=0;whiteSpace=wrap;html=1;" parent="1" vertex="1">
          <mxGeometry x="256.5" y="510" width="350" height="168" as="geometry" />
        </mxCell>
        <mxCell id="pc3H7Vz2aSoduVJGx9uI-17" value="- context: Context&lt;br&gt;- possibleOptionsPrinter: Consumer&amp;lt;List&amp;lt;InputOptionsEnum&amp;gt;&amp;gt;&lt;br&gt;- successInputHandler: InputHandler&lt;br&gt;- failureInputHandler: failureInputHandler&lt;br&gt;- possibleOptions: List&amp;lt;String&amp;gt;&lt;br&gt;- &lt;u&gt;scanner:&lt;/u&gt;&amp;nbsp;Scanner" style="text;strokeColor=none;fillColor=none;align=left;verticalAlign=top;spacingLeft=4;spacingRight=4;overflow=hidden;rotatable=0;points=[[0,0.5],[1,0.5]];portConstraint=eastwest;whiteSpace=wrap;html=1;" parent="pc3H7Vz2aSoduVJGx9uI-16" vertex="1">
          <mxGeometry y="26" width="350" height="94" as="geometry" />
        </mxCell>
        <mxCell id="pc3H7Vz2aSoduVJGx9uI-18" value="" style="line;strokeWidth=1;fillColor=none;align=left;verticalAlign=middle;spacingTop=-1;spacingLeft=3;spacingRight=3;rotatable=0;labelPosition=right;points=[];portConstraint=eastwest;strokeColor=inherit;" parent="pc3H7Vz2aSoduVJGx9uI-16" vertex="1">
          <mxGeometry y="120" width="350" height="8" as="geometry" />
        </mxCell>
        <mxCell id="pc3H7Vz2aSoduVJGx9uI-19" value="+ run(): void&lt;br&gt;- getInput(): ProcessingState" style="text;strokeColor=none;fillColor=none;align=left;verticalAlign=top;spacingLeft=4;spacingRight=4;overflow=hidden;rotatable=0;points=[[0,0.5],[1,0.5]];portConstraint=eastwest;whiteSpace=wrap;html=1;" parent="pc3H7Vz2aSoduVJGx9uI-16" vertex="1">
          <mxGeometry y="128" width="350" height="40" as="geometry" />
        </mxCell>
        <mxCell id="pc3H7Vz2aSoduVJGx9uI-22" value="" style="rounded=0;orthogonalLoop=1;jettySize=auto;html=1;endArrow=halfCircle;endFill=0;endSize=6;strokeWidth=1;sketch=0;exitX=0.504;exitY=1.038;exitDx=0;exitDy=0;exitPerimeter=0;entryX=0.667;entryY=-0.3;entryDx=0;entryDy=0;entryPerimeter=0;" parent="1" source="pc3H7Vz2aSoduVJGx9uI-14" target="pc3H7Vz2aSoduVJGx9uI-24" edge="1">
          <mxGeometry relative="1" as="geometry">
            <mxPoint x="440" y="495" as="sourcePoint" />
          </mxGeometry>
        </mxCell>
        <mxCell id="pc3H7Vz2aSoduVJGx9uI-23" value="" style="rounded=0;orthogonalLoop=1;jettySize=auto;html=1;endArrow=oval;endFill=0;sketch=0;sourcePerimeterSpacing=0;targetPerimeterSpacing=0;endSize=10;exitX=0.5;exitY=0;exitDx=0;exitDy=0;" parent="1" source="pc3H7Vz2aSoduVJGx9uI-16" target="pc3H7Vz2aSoduVJGx9uI-24" edge="1">
          <mxGeometry relative="1" as="geometry">
            <mxPoint x="400" y="495" as="sourcePoint" />
          </mxGeometry>
        </mxCell>
        <mxCell id="pc3H7Vz2aSoduVJGx9uI-24" value="" style="ellipse;whiteSpace=wrap;html=1;align=center;aspect=fixed;fillColor=none;strokeColor=none;resizable=0;perimeter=centerPerimeter;rotatable=0;allowArrows=0;points=[];outlineConnect=1;" parent="1" vertex="1">
          <mxGeometry x="426.5" y="490" width="10" height="10" as="geometry" />
        </mxCell>
        <mxCell id="pc3H7Vz2aSoduVJGx9uI-25" value="" style="endArrow=none;dashed=1;html=1;dashPattern=1 3;strokeWidth=2;rounded=0;exitX=1.008;exitY=0.543;exitDx=0;exitDy=0;exitPerimeter=0;" parent="1" edge="1" source="pc3H7Vz2aSoduVJGx9uI-6">
          <mxGeometry width="50" height="50" relative="1" as="geometry">
            <mxPoint x="360" y="290" as="sourcePoint" />
            <mxPoint x="620" y="210" as="targetPoint" />
          </mxGeometry>
        </mxCell>
        <mxCell id="pc3H7Vz2aSoduVJGx9uI-26" value="&amp;lt;&amp;lt;interface&amp;gt;&amp;gt;&lt;br&gt;Context" style="swimlane;fontStyle=1;align=center;verticalAlign=top;childLayout=stackLayout;horizontal=1;startSize=40;horizontalStack=0;resizeParent=1;resizeParentMax=0;resizeLast=0;collapsible=1;marginBottom=0;whiteSpace=wrap;html=1;movable=1;resizable=1;rotatable=1;deletable=1;editable=1;locked=0;connectable=1;swimlaneLine=1;" parent="1" vertex="1">
          <mxGeometry x="685" y="390" width="170" height="70" as="geometry">
            <mxRectangle x="400" y="400" width="130" height="40" as="alternateBounds" />
          </mxGeometry>
        </mxCell>
        <mxCell id="pc3H7Vz2aSoduVJGx9uI-27" value="+ getRepository(): Repository" style="text;strokeColor=none;fillColor=none;align=left;verticalAlign=top;spacingLeft=4;spacingRight=4;overflow=hidden;rotatable=0;points=[[0,0.5],[1,0.5]];portConstraint=eastwest;whiteSpace=wrap;html=1;" parent="pc3H7Vz2aSoduVJGx9uI-26" vertex="1">
          <mxGeometry y="40" width="170" height="30" as="geometry" />
        </mxCell>
        <mxCell id="pc3H7Vz2aSoduVJGx9uI-28" value="" style="endArrow=block;dashed=1;html=1;dashPattern=1 3;strokeWidth=2;rounded=0;endFill=1;" parent="1" edge="1" target="pc3H7Vz2aSoduVJGx9uI-26">
          <mxGeometry width="50" height="50" relative="1" as="geometry">
            <mxPoint x="675" y="210" as="sourcePoint" />
            <mxPoint x="765" y="310" as="targetPoint" />
            <Array as="points">
              <mxPoint x="765" y="210" />
            </Array>
          </mxGeometry>
        </mxCell>
        <mxCell id="GxNj5G7-c9G8TD5QoxdH-61" value="create" style="edgeLabel;html=1;align=center;verticalAlign=middle;resizable=0;points=[];" vertex="1" connectable="0" parent="pc3H7Vz2aSoduVJGx9uI-28">
          <mxGeometry x="0.3721" y="-2" relative="1" as="geometry">
            <mxPoint as="offset" />
          </mxGeometry>
        </mxCell>
        <mxCell id="pc3H7Vz2aSoduVJGx9uI-29" value="CurrencyContext" style="swimlane;fontStyle=1;align=center;verticalAlign=top;childLayout=stackLayout;horizontal=1;startSize=26;horizontalStack=0;resizeParent=1;resizeParentMax=0;resizeLast=0;collapsible=1;marginBottom=0;whiteSpace=wrap;html=1;" parent="1" vertex="1">
          <mxGeometry x="650" y="520" width="260" height="100" as="geometry" />
        </mxCell>
        <mxCell id="pc3H7Vz2aSoduVJGx9uI-30" value="- repository: Repository" style="text;strokeColor=none;fillColor=none;align=left;verticalAlign=top;spacingLeft=4;spacingRight=4;overflow=hidden;rotatable=0;points=[[0,0.5],[1,0.5]];portConstraint=eastwest;whiteSpace=wrap;html=1;" parent="pc3H7Vz2aSoduVJGx9uI-29" vertex="1">
          <mxGeometry y="26" width="260" height="26" as="geometry" />
        </mxCell>
        <mxCell id="pc3H7Vz2aSoduVJGx9uI-31" value="" style="line;strokeWidth=1;fillColor=none;align=left;verticalAlign=middle;spacingTop=-1;spacingLeft=3;spacingRight=3;rotatable=0;labelPosition=right;points=[];portConstraint=eastwest;strokeColor=inherit;" parent="pc3H7Vz2aSoduVJGx9uI-29" vertex="1">
          <mxGeometry y="52" width="260" height="8" as="geometry" />
        </mxCell>
        <mxCell id="pc3H7Vz2aSoduVJGx9uI-32" value="+ &lt;u&gt;init(Repository):&lt;/u&gt;&amp;nbsp;CurrencyContext&lt;br&gt;+ getRepository(): Repository" style="text;strokeColor=none;fillColor=none;align=left;verticalAlign=top;spacingLeft=4;spacingRight=4;overflow=hidden;rotatable=0;points=[[0,0.5],[1,0.5]];portConstraint=eastwest;whiteSpace=wrap;html=1;" parent="pc3H7Vz2aSoduVJGx9uI-29" vertex="1">
          <mxGeometry y="60" width="260" height="40" as="geometry" />
        </mxCell>
        <mxCell id="pc3H7Vz2aSoduVJGx9uI-33" value="" style="endArrow=none;dashed=1;html=1;dashPattern=1 3;strokeWidth=2;rounded=0;" parent="1" edge="1">
          <mxGeometry width="50" height="50" relative="1" as="geometry">
            <mxPoint x="620" y="210" as="sourcePoint" />
            <mxPoint x="680" y="210" as="targetPoint" />
          </mxGeometry>
        </mxCell>
        <mxCell id="pc3H7Vz2aSoduVJGx9uI-37" value="" style="rounded=0;orthogonalLoop=1;jettySize=auto;html=1;endArrow=halfCircle;endFill=0;endSize=6;strokeWidth=1;sketch=0;exitX=0.498;exitY=1.08;exitDx=0;exitDy=0;exitPerimeter=0;" parent="1" source="pc3H7Vz2aSoduVJGx9uI-27" target="pc3H7Vz2aSoduVJGx9uI-39" edge="1">
          <mxGeometry relative="1" as="geometry">
            <mxPoint x="740" y="385" as="sourcePoint" />
          </mxGeometry>
        </mxCell>
        <mxCell id="pc3H7Vz2aSoduVJGx9uI-38" value="" style="rounded=0;orthogonalLoop=1;jettySize=auto;html=1;endArrow=oval;endFill=0;sketch=0;sourcePerimeterSpacing=0;targetPerimeterSpacing=0;endSize=10;exitX=0.462;exitY=0;exitDx=0;exitDy=0;exitPerimeter=0;" parent="1" source="pc3H7Vz2aSoduVJGx9uI-29" target="pc3H7Vz2aSoduVJGx9uI-39" edge="1">
          <mxGeometry relative="1" as="geometry">
            <mxPoint x="700" y="385" as="sourcePoint" />
          </mxGeometry>
        </mxCell>
        <mxCell id="pc3H7Vz2aSoduVJGx9uI-39" value="" style="ellipse;whiteSpace=wrap;html=1;align=center;aspect=fixed;fillColor=none;strokeColor=none;resizable=0;perimeter=centerPerimeter;rotatable=0;allowArrows=0;points=[];outlineConnect=1;" parent="1" vertex="1">
          <mxGeometry x="765" y="490" width="10" height="10" as="geometry" />
        </mxCell>
        <mxCell id="pc3H7Vz2aSoduVJGx9uI-42" value="" style="endArrow=none;dashed=1;html=1;dashPattern=1 3;strokeWidth=2;rounded=0;exitX=0.295;exitY=1.051;exitDx=0;exitDy=0;exitPerimeter=0;" parent="1" edge="1" source="pc3H7Vz2aSoduVJGx9uI-8">
          <mxGeometry width="50" height="50" relative="1" as="geometry">
            <mxPoint x="120" y="420" as="sourcePoint" />
            <mxPoint x="120" y="1090" as="targetPoint" />
          </mxGeometry>
        </mxCell>
        <mxCell id="pc3H7Vz2aSoduVJGx9uI-43" value="&amp;lt;&amp;lt;interface&amp;gt;&amp;gt;&lt;br&gt;Repository" style="swimlane;fontStyle=1;align=center;verticalAlign=top;childLayout=stackLayout;horizontal=1;startSize=40;horizontalStack=0;resizeParent=1;resizeParentMax=0;resizeLast=0;collapsible=1;marginBottom=0;whiteSpace=wrap;html=1;movable=1;resizable=1;rotatable=1;deletable=1;editable=1;locked=0;connectable=1;swimlaneLine=1;" parent="1" vertex="1">
          <mxGeometry x="180" y="700" width="320" height="150" as="geometry">
            <mxRectangle x="400" y="400" width="130" height="40" as="alternateBounds" />
          </mxGeometry>
        </mxCell>
        <mxCell id="pc3H7Vz2aSoduVJGx9uI-44" value="+ getCollection(): Set&amp;lt;ICurrency&amp;gt;&lt;br&gt;+ findByName(String): Optional&amp;lt;ICurrency&amp;gt;&lt;br&gt;+ findByCode(String): Optional&amp;lt;ICurrency&amp;gt;&lt;br&gt;+ addCurrency(ICurrency): Optional&amp;lt;ICurrency&amp;gt;&lt;br&gt;+ removeCurrency(ICurrency): Optional&amp;lt;ICurrency&amp;gt;&lt;br&gt;+ asString(): String" style="text;strokeColor=none;fillColor=none;align=left;verticalAlign=top;spacingLeft=4;spacingRight=4;overflow=hidden;rotatable=0;points=[[0,0.5],[1,0.5]];portConstraint=eastwest;whiteSpace=wrap;html=1;" parent="pc3H7Vz2aSoduVJGx9uI-43" vertex="1">
          <mxGeometry y="40" width="320" height="110" as="geometry" />
        </mxCell>
        <mxCell id="pc3H7Vz2aSoduVJGx9uI-45" value="" style="endArrow=block;dashed=1;html=1;dashPattern=1 3;strokeWidth=2;rounded=0;entryX=-0.01;entryY=0.434;entryDx=0;entryDy=0;entryPerimeter=0;endFill=1;" parent="1" target="pc3H7Vz2aSoduVJGx9uI-43" edge="1">
          <mxGeometry width="50" height="50" relative="1" as="geometry">
            <mxPoint x="120" y="765" as="sourcePoint" />
            <mxPoint x="700" y="720" as="targetPoint" />
          </mxGeometry>
        </mxCell>
        <mxCell id="GxNj5G7-c9G8TD5QoxdH-63" value="create" style="edgeLabel;html=1;align=center;verticalAlign=middle;resizable=0;points=[];" vertex="1" connectable="0" parent="pc3H7Vz2aSoduVJGx9uI-45">
          <mxGeometry x="-0.1112" y="-2" relative="1" as="geometry">
            <mxPoint as="offset" />
          </mxGeometry>
        </mxCell>
        <mxCell id="pc3H7Vz2aSoduVJGx9uI-46" value="CurrencyRepository" style="swimlane;fontStyle=1;align=center;verticalAlign=top;childLayout=stackLayout;horizontal=1;startSize=26;horizontalStack=0;resizeParent=1;resizeParentMax=0;resizeLast=0;collapsible=1;marginBottom=0;whiteSpace=wrap;html=1;" parent="1" vertex="1">
          <mxGeometry x="560" y="700" width="350" height="160" as="geometry" />
        </mxCell>
        <mxCell id="pc3H7Vz2aSoduVJGx9uI-47" value="- currenciesSet: Set&amp;lt;ICurrency&amp;gt;" style="text;strokeColor=none;fillColor=none;align=left;verticalAlign=top;spacingLeft=4;spacingRight=4;overflow=hidden;rotatable=0;points=[[0,0.5],[1,0.5]];portConstraint=eastwest;whiteSpace=wrap;html=1;" parent="pc3H7Vz2aSoduVJGx9uI-46" vertex="1">
          <mxGeometry y="26" width="350" height="24" as="geometry" />
        </mxCell>
        <mxCell id="pc3H7Vz2aSoduVJGx9uI-48" value="" style="line;strokeWidth=1;fillColor=none;align=left;verticalAlign=middle;spacingTop=-1;spacingLeft=3;spacingRight=3;rotatable=0;labelPosition=right;points=[];portConstraint=eastwest;strokeColor=inherit;" parent="pc3H7Vz2aSoduVJGx9uI-46" vertex="1">
          <mxGeometry y="50" width="350" height="8" as="geometry" />
        </mxCell>
        <mxCell id="pc3H7Vz2aSoduVJGx9uI-49" value="+ getCollection(): Set&amp;lt;ICurrency&amp;gt;&lt;br&gt;+ findByName(String): Optional&amp;lt;ICurrency&amp;gt;&lt;br&gt;+ findByCode(String): Optional&amp;lt;ICurrency&amp;gt;&lt;br&gt;+ addCurrency(ICurrency): Optional&amp;lt;ICurrency&amp;gt;&lt;br&gt;+ removeCurrency(ICurrency): Optional&amp;lt;ICurrency&amp;gt;&lt;br&gt;+ asString(): String" style="text;strokeColor=none;fillColor=none;align=left;verticalAlign=top;spacingLeft=4;spacingRight=4;overflow=hidden;rotatable=0;points=[[0,0.5],[1,0.5]];portConstraint=eastwest;whiteSpace=wrap;html=1;" parent="pc3H7Vz2aSoduVJGx9uI-46" vertex="1">
          <mxGeometry y="58" width="350" height="102" as="geometry" />
        </mxCell>
        <mxCell id="pc3H7Vz2aSoduVJGx9uI-53" value="" style="rounded=0;orthogonalLoop=1;jettySize=auto;html=1;endArrow=halfCircle;endFill=0;endSize=6;strokeWidth=1;sketch=0;exitX=1.004;exitY=0.361;exitDx=0;exitDy=0;exitPerimeter=0;" parent="1" source="pc3H7Vz2aSoduVJGx9uI-44" target="pc3H7Vz2aSoduVJGx9uI-55" edge="1">
          <mxGeometry relative="1" as="geometry">
            <mxPoint x="590" y="715" as="sourcePoint" />
          </mxGeometry>
        </mxCell>
        <mxCell id="pc3H7Vz2aSoduVJGx9uI-54" value="" style="rounded=0;orthogonalLoop=1;jettySize=auto;html=1;endArrow=oval;endFill=0;sketch=0;sourcePerimeterSpacing=0;targetPerimeterSpacing=0;endSize=10;exitX=-0.003;exitY=0.209;exitDx=0;exitDy=0;exitPerimeter=0;" parent="1" source="pc3H7Vz2aSoduVJGx9uI-49" target="pc3H7Vz2aSoduVJGx9uI-55" edge="1">
          <mxGeometry relative="1" as="geometry">
            <mxPoint x="550" y="715" as="sourcePoint" />
          </mxGeometry>
        </mxCell>
        <mxCell id="pc3H7Vz2aSoduVJGx9uI-55" value="" style="ellipse;whiteSpace=wrap;html=1;align=center;aspect=fixed;fillColor=none;strokeColor=none;resizable=0;perimeter=centerPerimeter;rotatable=0;allowArrows=0;points=[];outlineConnect=1;" parent="1" vertex="1">
          <mxGeometry x="513" y="775" width="10" height="10" as="geometry" />
        </mxCell>
        <mxCell id="pc3H7Vz2aSoduVJGx9uI-56" value="" style="endArrow=block;dashed=1;html=1;dashPattern=1 3;strokeWidth=2;rounded=0;endFill=1;" parent="1" edge="1">
          <mxGeometry width="50" height="50" relative="1" as="geometry">
            <mxPoint x="120" y="940" as="sourcePoint" />
            <mxPoint x="170" y="940" as="targetPoint" />
          </mxGeometry>
        </mxCell>
        <mxCell id="GxNj5G7-c9G8TD5QoxdH-64" value="create" style="edgeLabel;html=1;align=center;verticalAlign=middle;resizable=0;points=[];" vertex="1" connectable="0" parent="pc3H7Vz2aSoduVJGx9uI-56">
          <mxGeometry x="-0.2571" relative="1" as="geometry">
            <mxPoint as="offset" />
          </mxGeometry>
        </mxCell>
        <mxCell id="pc3H7Vz2aSoduVJGx9uI-57" value="&amp;lt;&amp;lt;interface&amp;gt;&amp;gt;&lt;br&gt;DataReader&amp;lt;T, F&amp;gt;" style="swimlane;fontStyle=1;align=center;verticalAlign=top;childLayout=stackLayout;horizontal=1;startSize=40;horizontalStack=0;resizeParent=1;resizeParentMax=0;resizeLast=0;collapsible=1;marginBottom=0;whiteSpace=wrap;html=1;movable=1;resizable=1;rotatable=1;deletable=1;editable=1;locked=0;connectable=1;swimlaneLine=1;" parent="1" vertex="1">
          <mxGeometry x="170" y="900" width="170" height="70" as="geometry">
            <mxRectangle x="400" y="400" width="130" height="40" as="alternateBounds" />
          </mxGeometry>
        </mxCell>
        <mxCell id="pc3H7Vz2aSoduVJGx9uI-58" value="+ readFrom(F): T" style="text;strokeColor=none;fillColor=none;align=left;verticalAlign=top;spacingLeft=4;spacingRight=4;overflow=hidden;rotatable=0;points=[[0,0.5],[1,0.5]];portConstraint=eastwest;whiteSpace=wrap;html=1;" parent="pc3H7Vz2aSoduVJGx9uI-57" vertex="1">
          <mxGeometry y="40" width="170" height="30" as="geometry" />
        </mxCell>
        <mxCell id="pc3H7Vz2aSoduVJGx9uI-60" value="CurrencyDataReader" style="swimlane;fontStyle=1;align=center;verticalAlign=top;childLayout=stackLayout;horizontal=1;startSize=26;horizontalStack=0;resizeParent=1;resizeParentMax=0;resizeLast=0;collapsible=1;marginBottom=0;whiteSpace=wrap;html=1;" parent="1" vertex="1">
          <mxGeometry x="390" y="900" width="320" height="96" as="geometry" />
        </mxCell>
        <mxCell id="pc3H7Vz2aSoduVJGx9uI-61" value="- xmlMapper: ObjectMapper&lt;br&gt;- parser: Function&amp;lt;XmlEntity, Set&amp;lt;ICurrency&amp;gt;&amp;gt;" style="text;strokeColor=none;fillColor=none;align=left;verticalAlign=top;spacingLeft=4;spacingRight=4;overflow=hidden;rotatable=0;points=[[0,0.5],[1,0.5]];portConstraint=eastwest;whiteSpace=wrap;html=1;" parent="pc3H7Vz2aSoduVJGx9uI-60" vertex="1">
          <mxGeometry y="26" width="320" height="34" as="geometry" />
        </mxCell>
        <mxCell id="pc3H7Vz2aSoduVJGx9uI-62" value="" style="line;strokeWidth=1;fillColor=none;align=left;verticalAlign=middle;spacingTop=-1;spacingLeft=3;spacingRight=3;rotatable=0;labelPosition=right;points=[];portConstraint=eastwest;strokeColor=inherit;" parent="pc3H7Vz2aSoduVJGx9uI-60" vertex="1">
          <mxGeometry y="60" width="320" height="10" as="geometry" />
        </mxCell>
        <mxCell id="pc3H7Vz2aSoduVJGx9uI-63" value="+ readFrom(String): Set&amp;lt;ICurrency&amp;gt;" style="text;strokeColor=none;fillColor=none;align=left;verticalAlign=top;spacingLeft=4;spacingRight=4;overflow=hidden;rotatable=0;points=[[0,0.5],[1,0.5]];portConstraint=eastwest;whiteSpace=wrap;html=1;" parent="pc3H7Vz2aSoduVJGx9uI-60" vertex="1">
          <mxGeometry y="70" width="320" height="26" as="geometry" />
        </mxCell>
        <mxCell id="pc3H7Vz2aSoduVJGx9uI-65" value="" style="rounded=0;orthogonalLoop=1;jettySize=auto;html=1;endArrow=halfCircle;endFill=0;endSize=6;strokeWidth=1;sketch=0;exitX=1;exitY=0.5;exitDx=0;exitDy=0;" parent="1" source="pc3H7Vz2aSoduVJGx9uI-57" target="pc3H7Vz2aSoduVJGx9uI-67" edge="1">
          <mxGeometry relative="1" as="geometry">
            <mxPoint x="540" y="855" as="sourcePoint" />
          </mxGeometry>
        </mxCell>
        <mxCell id="pc3H7Vz2aSoduVJGx9uI-66" value="" style="rounded=0;orthogonalLoop=1;jettySize=auto;html=1;endArrow=oval;endFill=0;sketch=0;sourcePerimeterSpacing=0;targetPerimeterSpacing=0;endSize=10;exitX=-0.007;exitY=0.27;exitDx=0;exitDy=0;exitPerimeter=0;entryX=0.5;entryY=1;entryDx=0;entryDy=0;entryPerimeter=0;" parent="1" source="pc3H7Vz2aSoduVJGx9uI-61" target="pc3H7Vz2aSoduVJGx9uI-67" edge="1">
          <mxGeometry relative="1" as="geometry">
            <mxPoint x="500" y="855" as="sourcePoint" />
          </mxGeometry>
        </mxCell>
        <mxCell id="pc3H7Vz2aSoduVJGx9uI-67" value="" style="ellipse;whiteSpace=wrap;html=1;align=center;aspect=fixed;fillColor=none;strokeColor=none;resizable=0;perimeter=centerPerimeter;rotatable=0;allowArrows=0;points=[];outlineConnect=1;" parent="1" vertex="1">
          <mxGeometry x="360" y="930" width="10" height="10" as="geometry" />
        </mxCell>
        <mxCell id="pc3H7Vz2aSoduVJGx9uI-68" value="ObjectMapper" style="swimlane;fontStyle=1;align=center;verticalAlign=top;childLayout=stackLayout;horizontal=1;startSize=30;horizontalStack=0;resizeParent=1;resizeParentMax=0;resizeLast=0;collapsible=1;marginBottom=0;whiteSpace=wrap;html=1;movable=1;resizable=1;rotatable=1;deletable=1;editable=1;locked=0;connectable=1;swimlaneLine=1;" parent="1" vertex="1">
          <mxGeometry x="1250" y="930" width="310" height="60" as="geometry">
            <mxRectangle x="400" y="400" width="130" height="40" as="alternateBounds" />
          </mxGeometry>
        </mxCell>
        <mxCell id="pc3H7Vz2aSoduVJGx9uI-69" value="+ addDeserializer(Class,JsonDeserializer&lt;span style=&quot;background-color: initial;&quot;&gt;): void&lt;/span&gt;" style="text;strokeColor=none;fillColor=none;align=left;verticalAlign=top;spacingLeft=4;spacingRight=4;overflow=hidden;rotatable=0;points=[[0,0.5],[1,0.5]];portConstraint=eastwest;whiteSpace=wrap;html=1;" parent="pc3H7Vz2aSoduVJGx9uI-68" vertex="1">
          <mxGeometry y="30" width="310" height="30" as="geometry" />
        </mxCell>
        <mxCell id="pc3H7Vz2aSoduVJGx9uI-70" value="CustomDoubleDeserializer" style="swimlane;fontStyle=1;align=center;verticalAlign=top;childLayout=stackLayout;horizontal=1;startSize=26;horizontalStack=0;resizeParent=1;resizeParentMax=0;resizeLast=0;collapsible=1;marginBottom=0;whiteSpace=wrap;html=1;" parent="1" vertex="1">
          <mxGeometry x="870" y="1045" width="350" height="60" as="geometry" />
        </mxCell>
        <mxCell id="pc3H7Vz2aSoduVJGx9uI-72" value="" style="line;strokeWidth=1;fillColor=none;align=left;verticalAlign=middle;spacingTop=-1;spacingLeft=3;spacingRight=3;rotatable=0;labelPosition=right;points=[];portConstraint=eastwest;strokeColor=inherit;" parent="pc3H7Vz2aSoduVJGx9uI-70" vertex="1">
          <mxGeometry y="26" width="350" height="8" as="geometry" />
        </mxCell>
        <mxCell id="pc3H7Vz2aSoduVJGx9uI-73" value="+ deserializer(JsonParser, DeserializationContext) : Double" style="text;strokeColor=none;fillColor=none;align=left;verticalAlign=top;spacingLeft=4;spacingRight=4;overflow=hidden;rotatable=0;points=[[0,0.5],[1,0.5]];portConstraint=eastwest;whiteSpace=wrap;html=1;" parent="pc3H7Vz2aSoduVJGx9uI-70" vertex="1">
          <mxGeometry y="34" width="350" height="26" as="geometry" />
        </mxCell>
        <mxCell id="pc3H7Vz2aSoduVJGx9uI-76" value="XmlMapper" style="swimlane;fontStyle=1;align=center;verticalAlign=top;childLayout=stackLayout;horizontal=1;startSize=26;horizontalStack=0;resizeParent=1;resizeParentMax=0;resizeLast=0;collapsible=1;marginBottom=0;whiteSpace=wrap;html=1;" parent="1" vertex="1">
          <mxGeometry x="810" y="918" width="350" height="60" as="geometry" />
        </mxCell>
        <mxCell id="pc3H7Vz2aSoduVJGx9uI-78" value="" style="line;strokeWidth=1;fillColor=none;align=left;verticalAlign=middle;spacingTop=-1;spacingLeft=3;spacingRight=3;rotatable=0;labelPosition=right;points=[];portConstraint=eastwest;strokeColor=inherit;" parent="pc3H7Vz2aSoduVJGx9uI-76" vertex="1">
          <mxGeometry y="26" width="350" height="8" as="geometry" />
        </mxCell>
        <mxCell id="pc3H7Vz2aSoduVJGx9uI-79" value="+addDeserializer(Class,JsonDeserializer): void" style="text;strokeColor=none;fillColor=none;align=left;verticalAlign=top;spacingLeft=4;spacingRight=4;overflow=hidden;rotatable=0;points=[[0,0.5],[1,0.5]];portConstraint=eastwest;whiteSpace=wrap;html=1;" parent="pc3H7Vz2aSoduVJGx9uI-76" vertex="1">
          <mxGeometry y="34" width="350" height="26" as="geometry" />
        </mxCell>
        <mxCell id="pc3H7Vz2aSoduVJGx9uI-80" value="," style="endArrow=none;dashed=1;html=1;dashPattern=1 3;strokeWidth=2;rounded=0;exitX=1.004;exitY=0.374;exitDx=0;exitDy=0;entryX=-0.011;entryY=0.082;entryDx=0;entryDy=0;entryPerimeter=0;exitPerimeter=0;" parent="1" source="pc3H7Vz2aSoduVJGx9uI-76" target="pc3H7Vz2aSoduVJGx9uI-69" edge="1">
          <mxGeometry width="50" height="50" relative="1" as="geometry">
            <mxPoint x="880" y="940" as="sourcePoint" />
            <mxPoint x="930" y="890" as="targetPoint" />
          </mxGeometry>
        </mxCell>
        <mxCell id="pc3H7Vz2aSoduVJGx9uI-83" value="extends" style="edgeLabel;html=1;align=center;verticalAlign=middle;resizable=0;points=[];" parent="pc3H7Vz2aSoduVJGx9uI-80" vertex="1" connectable="0">
          <mxGeometry x="-0.0832" y="1" relative="1" as="geometry">
            <mxPoint as="offset" />
          </mxGeometry>
        </mxCell>
        <mxCell id="pc3H7Vz2aSoduVJGx9uI-82" value="" style="endArrow=block;dashed=1;html=1;dashPattern=1 3;strokeWidth=2;rounded=0;exitX=1;exitY=0.5;exitDx=0;exitDy=0;entryX=-0.009;entryY=0.398;entryDx=0;entryDy=0;endFill=1;entryPerimeter=0;" parent="1" source="pc3H7Vz2aSoduVJGx9uI-61" target="pc3H7Vz2aSoduVJGx9uI-76" edge="1">
          <mxGeometry width="50" height="50" relative="1" as="geometry">
            <mxPoint x="970" y="880" as="sourcePoint" />
            <mxPoint x="1020" y="830" as="targetPoint" />
            <Array as="points" />
          </mxGeometry>
        </mxCell>
        <mxCell id="GxNj5G7-c9G8TD5QoxdH-65" value="create" style="edgeLabel;html=1;align=center;verticalAlign=middle;resizable=0;points=[];" vertex="1" connectable="0" parent="pc3H7Vz2aSoduVJGx9uI-82">
          <mxGeometry x="-0.1147" y="1" relative="1" as="geometry">
            <mxPoint as="offset" />
          </mxGeometry>
        </mxCell>
        <mxCell id="pc3H7Vz2aSoduVJGx9uI-87" value="" style="endArrow=block;dashed=1;html=1;dashPattern=1 3;strokeWidth=2;rounded=0;exitX=0.476;exitY=1.164;exitDx=0;exitDy=0;exitPerimeter=0;endFill=1;entryX=0.557;entryY=-0.019;entryDx=0;entryDy=0;entryPerimeter=0;" parent="1" source="pc3H7Vz2aSoduVJGx9uI-63" edge="1" target="pc3H7Vz2aSoduVJGx9uI-88">
          <mxGeometry width="50" height="50" relative="1" as="geometry">
            <mxPoint x="690" y="880" as="sourcePoint" />
            <mxPoint x="542" y="1090" as="targetPoint" />
          </mxGeometry>
        </mxCell>
        <mxCell id="pc3H7Vz2aSoduVJGx9uI-88" value="&amp;lt;&amp;lt;interface&amp;gt;&amp;gt;&lt;br&gt;JsonDeserializer&amp;lt;T&amp;gt;" style="swimlane;fontStyle=1;align=center;verticalAlign=top;childLayout=stackLayout;horizontal=1;startSize=40;horizontalStack=0;resizeParent=1;resizeParentMax=0;resizeLast=0;collapsible=1;marginBottom=0;whiteSpace=wrap;html=1;movable=1;resizable=1;rotatable=1;deletable=1;editable=1;locked=0;connectable=1;swimlaneLine=1;" parent="1" vertex="1">
          <mxGeometry x="350" y="1040" width="350" height="70" as="geometry">
            <mxRectangle x="400" y="400" width="130" height="40" as="alternateBounds" />
          </mxGeometry>
        </mxCell>
        <mxCell id="pc3H7Vz2aSoduVJGx9uI-89" value="+ deserializer(JsonParser, DeserializationContext) : T" style="text;strokeColor=none;fillColor=none;align=left;verticalAlign=top;spacingLeft=4;spacingRight=4;overflow=hidden;rotatable=0;points=[[0,0.5],[1,0.5]];portConstraint=eastwest;whiteSpace=wrap;html=1;" parent="pc3H7Vz2aSoduVJGx9uI-88" vertex="1">
          <mxGeometry y="40" width="350" height="30" as="geometry" />
        </mxCell>
        <mxCell id="pc3H7Vz2aSoduVJGx9uI-91" value="" style="rounded=0;orthogonalLoop=1;jettySize=auto;html=1;endArrow=halfCircle;endFill=0;endSize=6;strokeWidth=1;sketch=0;exitX=1;exitY=0.5;exitDx=0;exitDy=0;" parent="1" source="pc3H7Vz2aSoduVJGx9uI-88" target="pc3H7Vz2aSoduVJGx9uI-93" edge="1">
          <mxGeometry relative="1" as="geometry">
            <mxPoint x="700" y="1055" as="sourcePoint" />
          </mxGeometry>
        </mxCell>
        <mxCell id="pc3H7Vz2aSoduVJGx9uI-92" value="" style="rounded=0;orthogonalLoop=1;jettySize=auto;html=1;endArrow=oval;endFill=0;sketch=0;sourcePerimeterSpacing=0;targetPerimeterSpacing=0;endSize=10;exitX=-0.003;exitY=-0.115;exitDx=0;exitDy=0;exitPerimeter=0;" parent="1" source="pc3H7Vz2aSoduVJGx9uI-73" target="pc3H7Vz2aSoduVJGx9uI-93" edge="1">
          <mxGeometry relative="1" as="geometry">
            <mxPoint x="660" y="1055" as="sourcePoint" />
          </mxGeometry>
        </mxCell>
        <mxCell id="pc3H7Vz2aSoduVJGx9uI-93" value="" style="ellipse;whiteSpace=wrap;html=1;align=center;aspect=fixed;fillColor=none;strokeColor=none;resizable=0;perimeter=centerPerimeter;rotatable=0;allowArrows=0;points=[];outlineConnect=1;" parent="1" vertex="1">
          <mxGeometry x="775" y="1070" width="10" height="10" as="geometry" />
        </mxCell>
        <mxCell id="pc3H7Vz2aSoduVJGx9uI-97" value="" style="endArrow=none;dashed=1;html=1;dashPattern=1 3;strokeWidth=2;rounded=0;" parent="1" edge="1">
          <mxGeometry width="50" height="50" relative="1" as="geometry">
            <mxPoint x="120" y="1090" as="sourcePoint" />
            <mxPoint x="120" y="1280" as="targetPoint" />
          </mxGeometry>
        </mxCell>
        <mxCell id="pc3H7Vz2aSoduVJGx9uI-98" value="&amp;lt;&amp;lt;interface&amp;gt;&amp;gt;&lt;br&gt;Function &amp;lt;T, R&amp;gt;" style="swimlane;fontStyle=1;align=center;verticalAlign=top;childLayout=stackLayout;horizontal=1;startSize=40;horizontalStack=0;resizeParent=1;resizeParentMax=0;resizeLast=0;collapsible=1;marginBottom=0;whiteSpace=wrap;html=1;movable=1;resizable=1;rotatable=1;deletable=1;editable=1;locked=0;connectable=1;swimlaneLine=1;" parent="1" vertex="1">
          <mxGeometry x="190" y="1240" width="170" height="70" as="geometry">
            <mxRectangle x="400" y="400" width="130" height="40" as="alternateBounds" />
          </mxGeometry>
        </mxCell>
        <mxCell id="pc3H7Vz2aSoduVJGx9uI-99" value="+ apply(T): R" style="text;strokeColor=none;fillColor=none;align=left;verticalAlign=top;spacingLeft=4;spacingRight=4;overflow=hidden;rotatable=0;points=[[0,0.5],[1,0.5]];portConstraint=eastwest;whiteSpace=wrap;html=1;" parent="pc3H7Vz2aSoduVJGx9uI-98" vertex="1">
          <mxGeometry y="40" width="170" height="30" as="geometry" />
        </mxCell>
        <mxCell id="pc3H7Vz2aSoduVJGx9uI-100" value="" style="endArrow=block;dashed=1;html=1;dashPattern=1 3;strokeWidth=2;rounded=0;entryX=-0.028;entryY=-0.032;entryDx=0;entryDy=0;entryPerimeter=0;endFill=1;" parent="1" target="pc3H7Vz2aSoduVJGx9uI-99" edge="1">
          <mxGeometry width="50" height="50" relative="1" as="geometry">
            <mxPoint x="120" y="1280" as="sourcePoint" />
            <mxPoint x="680" y="1200" as="targetPoint" />
          </mxGeometry>
        </mxCell>
        <mxCell id="GxNj5G7-c9G8TD5QoxdH-66" value="create" style="edgeLabel;html=1;align=center;verticalAlign=middle;resizable=0;points=[];" vertex="1" connectable="0" parent="pc3H7Vz2aSoduVJGx9uI-100">
          <mxGeometry x="-0.1666" y="3" relative="1" as="geometry">
            <mxPoint as="offset" />
          </mxGeometry>
        </mxCell>
        <mxCell id="pc3H7Vz2aSoduVJGx9uI-101" value="" style="rounded=0;orthogonalLoop=1;jettySize=auto;html=1;endArrow=halfCircle;endFill=0;endSize=6;strokeWidth=1;sketch=0;exitX=1;exitY=0.5;exitDx=0;exitDy=0;" parent="1" source="pc3H7Vz2aSoduVJGx9uI-98" edge="1">
          <mxGeometry relative="1" as="geometry">
            <mxPoint x="670" y="1055" as="sourcePoint" />
            <mxPoint x="405" y="1275" as="targetPoint" />
          </mxGeometry>
        </mxCell>
        <mxCell id="pc3H7Vz2aSoduVJGx9uI-102" value="" style="rounded=0;orthogonalLoop=1;jettySize=auto;html=1;endArrow=oval;endFill=0;sketch=0;sourcePerimeterSpacing=0;targetPerimeterSpacing=0;endSize=10;" parent="1" edge="1">
          <mxGeometry relative="1" as="geometry">
            <mxPoint x="460" y="1275" as="sourcePoint" />
            <mxPoint x="405" y="1275" as="targetPoint" />
          </mxGeometry>
        </mxCell>
        <mxCell id="pc3H7Vz2aSoduVJGx9uI-104" value="CurrencyParser" style="swimlane;fontStyle=1;align=center;verticalAlign=top;childLayout=stackLayout;horizontal=1;startSize=26;horizontalStack=0;resizeParent=1;resizeParentMax=0;resizeLast=0;collapsible=1;marginBottom=0;whiteSpace=wrap;html=1;" parent="1" vertex="1">
          <mxGeometry x="460" y="1230" width="260" height="74" as="geometry" />
        </mxCell>
        <mxCell id="pc3H7Vz2aSoduVJGx9uI-106" value="" style="line;strokeWidth=1;fillColor=none;align=left;verticalAlign=middle;spacingTop=-1;spacingLeft=3;spacingRight=3;rotatable=0;labelPosition=right;points=[];portConstraint=eastwest;strokeColor=inherit;" parent="pc3H7Vz2aSoduVJGx9uI-104" vertex="1">
          <mxGeometry y="26" width="260" height="8" as="geometry" />
        </mxCell>
        <mxCell id="pc3H7Vz2aSoduVJGx9uI-107" value="+ apply(XmlEntity): Set&amp;lt;ICurrency&amp;gt;&lt;u&gt;&lt;br&gt;&lt;/u&gt;- toCurrency(XmlEntity.Currency): Currency" style="text;strokeColor=none;fillColor=none;align=left;verticalAlign=top;spacingLeft=4;spacingRight=4;overflow=hidden;rotatable=0;points=[[0,0.5],[1,0.5]];portConstraint=eastwest;whiteSpace=wrap;html=1;" parent="pc3H7Vz2aSoduVJGx9uI-104" vertex="1">
          <mxGeometry y="34" width="260" height="40" as="geometry" />
        </mxCell>
        <mxCell id="pc3H7Vz2aSoduVJGx9uI-108" value="" style="endArrow=none;dashed=1;html=1;dashPattern=1 3;strokeWidth=2;rounded=0;" parent="1" edge="1">
          <mxGeometry width="50" height="50" relative="1" as="geometry">
            <mxPoint x="120" y="1280" as="sourcePoint" />
            <mxPoint x="120" y="1400" as="targetPoint" />
          </mxGeometry>
        </mxCell>
        <mxCell id="pc3H7Vz2aSoduVJGx9uI-109" value="" style="endArrow=block;dashed=1;html=1;dashPattern=1 3;strokeWidth=2;rounded=0;endFill=1;" parent="1" edge="1">
          <mxGeometry width="50" height="50" relative="1" as="geometry">
            <mxPoint x="120" y="1380" as="sourcePoint" />
            <mxPoint x="170" y="1380" as="targetPoint" />
          </mxGeometry>
        </mxCell>
        <mxCell id="pc3H7Vz2aSoduVJGx9uI-110" value="&amp;lt;&amp;lt;interface&amp;gt;&amp;gt;&lt;br&gt;Consumer&amp;lt;T&amp;gt;" style="swimlane;fontStyle=1;align=center;verticalAlign=top;childLayout=stackLayout;horizontal=1;startSize=40;horizontalStack=0;resizeParent=1;resizeParentMax=0;resizeLast=0;collapsible=1;marginBottom=0;whiteSpace=wrap;html=1;movable=1;resizable=1;rotatable=1;deletable=1;editable=1;locked=0;connectable=1;swimlaneLine=1;" parent="1" vertex="1">
          <mxGeometry x="170" y="1340" width="170" height="70" as="geometry">
            <mxRectangle x="400" y="400" width="130" height="40" as="alternateBounds" />
          </mxGeometry>
        </mxCell>
        <mxCell id="pc3H7Vz2aSoduVJGx9uI-111" value="+ accept(T): void" style="text;strokeColor=none;fillColor=none;align=left;verticalAlign=top;spacingLeft=4;spacingRight=4;overflow=hidden;rotatable=0;points=[[0,0.5],[1,0.5]];portConstraint=eastwest;whiteSpace=wrap;html=1;" parent="pc3H7Vz2aSoduVJGx9uI-110" vertex="1">
          <mxGeometry y="40" width="170" height="30" as="geometry" />
        </mxCell>
        <mxCell id="pc3H7Vz2aSoduVJGx9uI-112" value="PossibleOptionsPrinter" style="swimlane;fontStyle=1;align=center;verticalAlign=top;childLayout=stackLayout;horizontal=1;startSize=26;horizontalStack=0;resizeParent=1;resizeParentMax=0;resizeLast=0;collapsible=1;marginBottom=0;whiteSpace=wrap;html=1;" parent="1" vertex="1">
          <mxGeometry x="450" y="1336" width="380" height="60" as="geometry" />
        </mxCell>
        <mxCell id="pc3H7Vz2aSoduVJGx9uI-113" value="" style="line;strokeWidth=1;fillColor=none;align=left;verticalAlign=middle;spacingTop=-1;spacingLeft=3;spacingRight=3;rotatable=0;labelPosition=right;points=[];portConstraint=eastwest;strokeColor=inherit;" parent="pc3H7Vz2aSoduVJGx9uI-112" vertex="1">
          <mxGeometry y="26" width="380" height="8" as="geometry" />
        </mxCell>
        <mxCell id="pc3H7Vz2aSoduVJGx9uI-114" value="+ accept(List&amp;lt;InputOptionsEnum&amp;gt;): void" style="text;strokeColor=none;fillColor=none;align=left;verticalAlign=top;spacingLeft=4;spacingRight=4;overflow=hidden;rotatable=0;points=[[0,0.5],[1,0.5]];portConstraint=eastwest;whiteSpace=wrap;html=1;" parent="pc3H7Vz2aSoduVJGx9uI-112" vertex="1">
          <mxGeometry y="34" width="380" height="26" as="geometry" />
        </mxCell>
        <mxCell id="pc3H7Vz2aSoduVJGx9uI-115" value="" style="rounded=0;orthogonalLoop=1;jettySize=auto;html=1;endArrow=halfCircle;endFill=0;endSize=6;strokeWidth=1;sketch=0;exitX=1;exitY=0.5;exitDx=0;exitDy=0;" parent="1" edge="1">
          <mxGeometry relative="1" as="geometry">
            <mxPoint x="340" y="1372.64" as="sourcePoint" />
            <mxPoint x="385" y="1372.64" as="targetPoint" />
          </mxGeometry>
        </mxCell>
        <mxCell id="pc3H7Vz2aSoduVJGx9uI-116" value="" style="rounded=0;orthogonalLoop=1;jettySize=auto;html=1;endArrow=oval;endFill=0;sketch=0;sourcePerimeterSpacing=0;targetPerimeterSpacing=0;endSize=10;exitX=0;exitY=0.102;exitDx=0;exitDy=0;exitPerimeter=0;" parent="1" source="pc3H7Vz2aSoduVJGx9uI-114" edge="1">
          <mxGeometry relative="1" as="geometry">
            <mxPoint x="445" y="1372.64" as="sourcePoint" />
            <mxPoint x="390" y="1372.64" as="targetPoint" />
          </mxGeometry>
        </mxCell>
        <mxCell id="pc3H7Vz2aSoduVJGx9uI-117" value="" style="endArrow=none;dashed=1;html=1;dashPattern=1 3;strokeWidth=2;rounded=0;" parent="1" edge="1">
          <mxGeometry width="50" height="50" relative="1" as="geometry">
            <mxPoint x="120" y="1390" as="sourcePoint" />
            <mxPoint x="120" y="1490" as="targetPoint" />
          </mxGeometry>
        </mxCell>
        <mxCell id="pc3H7Vz2aSoduVJGx9uI-118" value="&amp;lt;&amp;lt;interface&amp;gt;&amp;gt;&lt;br&gt;InputHandler" style="swimlane;fontStyle=1;align=center;verticalAlign=top;childLayout=stackLayout;horizontal=1;startSize=40;horizontalStack=0;resizeParent=1;resizeParentMax=0;resizeLast=0;collapsible=1;marginBottom=0;whiteSpace=wrap;html=1;movable=1;resizable=1;rotatable=1;deletable=1;editable=1;locked=0;connectable=1;swimlaneLine=1;" parent="1" vertex="1">
          <mxGeometry x="160" y="1450" width="260" height="70" as="geometry">
            <mxRectangle x="400" y="400" width="130" height="40" as="alternateBounds" />
          </mxGeometry>
        </mxCell>
        <mxCell id="pc3H7Vz2aSoduVJGx9uI-119" value="+ handle(String, Context): ProcessingState" style="text;strokeColor=none;fillColor=none;align=left;verticalAlign=top;spacingLeft=4;spacingRight=4;overflow=hidden;rotatable=0;points=[[0,0.5],[1,0.5]];portConstraint=eastwest;whiteSpace=wrap;html=1;" parent="pc3H7Vz2aSoduVJGx9uI-118" vertex="1">
          <mxGeometry y="40" width="260" height="30" as="geometry" />
        </mxCell>
        <mxCell id="pc3H7Vz2aSoduVJGx9uI-122" value="" style="endArrow=block;dashed=1;html=1;dashPattern=1 3;strokeWidth=2;rounded=0;endFill=1;" parent="1" edge="1">
          <mxGeometry width="50" height="50" relative="1" as="geometry">
            <mxPoint x="120" y="1490" as="sourcePoint" />
            <mxPoint x="160" y="1490" as="targetPoint" />
          </mxGeometry>
        </mxCell>
        <mxCell id="GxNj5G7-c9G8TD5QoxdH-68" value="create" style="edgeLabel;html=1;align=center;verticalAlign=middle;resizable=0;points=[];" vertex="1" connectable="0" parent="pc3H7Vz2aSoduVJGx9uI-122">
          <mxGeometry x="0.0238" relative="1" as="geometry">
            <mxPoint as="offset" />
          </mxGeometry>
        </mxCell>
        <mxCell id="pc3H7Vz2aSoduVJGx9uI-123" value="SuccessfullInputHandler" style="swimlane;fontStyle=1;align=center;verticalAlign=top;childLayout=stackLayout;horizontal=1;startSize=26;horizontalStack=0;resizeParent=1;resizeParentMax=0;resizeLast=0;collapsible=1;marginBottom=0;whiteSpace=wrap;html=1;" parent="1" vertex="1">
          <mxGeometry x="523" y="1430" width="470" height="90" as="geometry" />
        </mxCell>
        <mxCell id="pc3H7Vz2aSoduVJGx9uI-124" value="- actionMap: Map&amp;lt;InputOptionsenum, Function&amp;lt;Context, ProcessingState&amp;gt;&amp;gt;" style="text;strokeColor=none;fillColor=none;align=left;verticalAlign=top;spacingLeft=4;spacingRight=4;overflow=hidden;rotatable=0;points=[[0,0.5],[1,0.5]];portConstraint=eastwest;whiteSpace=wrap;html=1;" parent="pc3H7Vz2aSoduVJGx9uI-123" vertex="1">
          <mxGeometry y="26" width="470" height="24" as="geometry" />
        </mxCell>
        <mxCell id="pc3H7Vz2aSoduVJGx9uI-125" value="" style="line;strokeWidth=1;fillColor=none;align=left;verticalAlign=middle;spacingTop=-1;spacingLeft=3;spacingRight=3;rotatable=0;labelPosition=right;points=[];portConstraint=eastwest;strokeColor=inherit;" parent="pc3H7Vz2aSoduVJGx9uI-123" vertex="1">
          <mxGeometry y="50" width="470" height="8" as="geometry" />
        </mxCell>
        <mxCell id="pc3H7Vz2aSoduVJGx9uI-126" value="+ handle(String, Context): ProcessingState" style="text;strokeColor=none;fillColor=none;align=left;verticalAlign=top;spacingLeft=4;spacingRight=4;overflow=hidden;rotatable=0;points=[[0,0.5],[1,0.5]];portConstraint=eastwest;whiteSpace=wrap;html=1;" parent="pc3H7Vz2aSoduVJGx9uI-123" vertex="1">
          <mxGeometry y="58" width="470" height="32" as="geometry" />
        </mxCell>
        <mxCell id="pc3H7Vz2aSoduVJGx9uI-127" value="" style="rounded=0;orthogonalLoop=1;jettySize=auto;html=1;endArrow=halfCircle;endFill=0;endSize=6;strokeWidth=1;sketch=0;exitX=1;exitY=0.5;exitDx=0;exitDy=0;" parent="1" edge="1">
          <mxGeometry relative="1" as="geometry">
            <mxPoint x="420" y="1484.58" as="sourcePoint" />
            <mxPoint x="465" y="1484.58" as="targetPoint" />
          </mxGeometry>
        </mxCell>
        <mxCell id="pc3H7Vz2aSoduVJGx9uI-128" value="" style="rounded=0;orthogonalLoop=1;jettySize=auto;html=1;endArrow=oval;endFill=0;sketch=0;sourcePerimeterSpacing=0;targetPerimeterSpacing=0;endSize=10;" parent="1" edge="1">
          <mxGeometry relative="1" as="geometry">
            <mxPoint x="520" y="1484.58" as="sourcePoint" />
            <mxPoint x="465" y="1484.58" as="targetPoint" />
          </mxGeometry>
        </mxCell>
        <mxCell id="pc3H7Vz2aSoduVJGx9uI-129" value="FailureInputHandler" style="swimlane;fontStyle=1;align=center;verticalAlign=top;childLayout=stackLayout;horizontal=1;startSize=26;horizontalStack=0;resizeParent=1;resizeParentMax=0;resizeLast=0;collapsible=1;marginBottom=0;whiteSpace=wrap;html=1;" parent="1" vertex="1">
          <mxGeometry x="523" y="1540" width="470" height="66" as="geometry" />
        </mxCell>
        <mxCell id="pc3H7Vz2aSoduVJGx9uI-131" value="" style="line;strokeWidth=1;fillColor=none;align=left;verticalAlign=middle;spacingTop=-1;spacingLeft=3;spacingRight=3;rotatable=0;labelPosition=right;points=[];portConstraint=eastwest;strokeColor=inherit;" parent="pc3H7Vz2aSoduVJGx9uI-129" vertex="1">
          <mxGeometry y="26" width="470" height="8" as="geometry" />
        </mxCell>
        <mxCell id="pc3H7Vz2aSoduVJGx9uI-132" value="+ handle(String, Context): ProcessingState" style="text;strokeColor=none;fillColor=none;align=left;verticalAlign=top;spacingLeft=4;spacingRight=4;overflow=hidden;rotatable=0;points=[[0,0.5],[1,0.5]];portConstraint=eastwest;whiteSpace=wrap;html=1;" parent="pc3H7Vz2aSoduVJGx9uI-129" vertex="1">
          <mxGeometry y="34" width="470" height="32" as="geometry" />
        </mxCell>
        <mxCell id="pc3H7Vz2aSoduVJGx9uI-133" value="" style="rounded=0;orthogonalLoop=1;jettySize=auto;html=1;endArrow=halfCircle;endFill=0;endSize=6;strokeWidth=1;sketch=0;exitX=1;exitY=0.5;exitDx=0;exitDy=0;" parent="1" source="pc3H7Vz2aSoduVJGx9uI-119" edge="1">
          <mxGeometry relative="1" as="geometry">
            <mxPoint x="430" y="1494.58" as="sourcePoint" />
            <mxPoint x="470" y="1560" as="targetPoint" />
          </mxGeometry>
        </mxCell>
        <mxCell id="pc3H7Vz2aSoduVJGx9uI-134" value="" style="rounded=0;orthogonalLoop=1;jettySize=auto;html=1;endArrow=oval;endFill=0;sketch=0;sourcePerimeterSpacing=0;targetPerimeterSpacing=0;endSize=10;" parent="1" edge="1">
          <mxGeometry relative="1" as="geometry">
            <mxPoint x="520" y="1580" as="sourcePoint" />
            <mxPoint x="470" y="1560" as="targetPoint" />
          </mxGeometry>
        </mxCell>
        <mxCell id="GxNj5G7-c9G8TD5QoxdH-2" value="" style="endArrow=block;dashed=1;html=1;dashPattern=1 3;strokeWidth=2;rounded=0;exitX=1.011;exitY=0.304;exitDx=0;exitDy=0;exitPerimeter=0;entryX=0.003;entryY=0.343;entryDx=0;entryDy=0;entryPerimeter=0;endFill=1;" edge="1" parent="1" source="pc3H7Vz2aSoduVJGx9uI-49" target="GxNj5G7-c9G8TD5QoxdH-5">
          <mxGeometry width="50" height="50" relative="1" as="geometry">
            <mxPoint x="1070" y="700" as="sourcePoint" />
            <mxPoint x="1040" y="790" as="targetPoint" />
          </mxGeometry>
        </mxCell>
        <mxCell id="GxNj5G7-c9G8TD5QoxdH-3" value="uses" style="edgeLabel;html=1;align=center;verticalAlign=middle;resizable=0;points=[];" vertex="1" connectable="0" parent="GxNj5G7-c9G8TD5QoxdH-2">
          <mxGeometry x="-0.3395" y="-1" relative="1" as="geometry">
            <mxPoint as="offset" />
          </mxGeometry>
        </mxCell>
        <mxCell id="GxNj5G7-c9G8TD5QoxdH-4" value="&amp;lt;&amp;lt;interface&amp;gt;&amp;gt;&lt;br&gt;ICurrency" style="swimlane;fontStyle=1;align=center;verticalAlign=top;childLayout=stackLayout;horizontal=1;startSize=40;horizontalStack=0;resizeParent=1;resizeParentMax=0;resizeLast=0;collapsible=1;marginBottom=0;whiteSpace=wrap;html=1;movable=1;resizable=1;rotatable=1;deletable=1;editable=1;locked=0;connectable=1;swimlaneLine=1;" vertex="1" parent="1">
          <mxGeometry x="1030" y="690" width="190" height="160" as="geometry">
            <mxRectangle x="400" y="400" width="130" height="40" as="alternateBounds" />
          </mxGeometry>
        </mxCell>
        <mxCell id="GxNj5G7-c9G8TD5QoxdH-5" value="+ getName(): String&lt;br&gt;+ setName(String): void&lt;br&gt;+ getCode(): String&lt;br&gt;+ getRate(): Double&lt;br&gt;+ setRate(Double): void&lt;br&gt;+ getFactorRate(): Double&lt;br&gt;+ setFactorRate(Double): void" style="text;strokeColor=none;fillColor=none;align=left;verticalAlign=top;spacingLeft=4;spacingRight=4;overflow=hidden;rotatable=0;points=[[0,0.5],[1,0.5]];portConstraint=eastwest;whiteSpace=wrap;html=1;" vertex="1" parent="GxNj5G7-c9G8TD5QoxdH-4">
          <mxGeometry y="40" width="190" height="120" as="geometry" />
        </mxCell>
        <mxCell id="GxNj5G7-c9G8TD5QoxdH-6" value="" style="rounded=0;orthogonalLoop=1;jettySize=auto;html=1;endArrow=halfCircle;endFill=0;endSize=6;strokeWidth=1;sketch=0;exitX=1.016;exitY=0.289;exitDx=0;exitDy=0;exitPerimeter=0;" edge="1" target="GxNj5G7-c9G8TD5QoxdH-8" parent="1" source="GxNj5G7-c9G8TD5QoxdH-5">
          <mxGeometry relative="1" as="geometry">
            <mxPoint x="1370" y="785" as="sourcePoint" />
          </mxGeometry>
        </mxCell>
        <mxCell id="GxNj5G7-c9G8TD5QoxdH-7" value="" style="rounded=0;orthogonalLoop=1;jettySize=auto;html=1;endArrow=oval;endFill=0;sketch=0;sourcePerimeterSpacing=0;targetPerimeterSpacing=0;endSize=10;entryX=0.467;entryY=-0.333;entryDx=0;entryDy=0;entryPerimeter=0;exitX=-0.003;exitY=0.04;exitDx=0;exitDy=0;exitPerimeter=0;" edge="1" target="GxNj5G7-c9G8TD5QoxdH-8" parent="1" source="GxNj5G7-c9G8TD5QoxdH-13">
          <mxGeometry relative="1" as="geometry">
            <mxPoint x="1400" y="745" as="sourcePoint" />
          </mxGeometry>
        </mxCell>
        <mxCell id="GxNj5G7-c9G8TD5QoxdH-8" value="" style="ellipse;whiteSpace=wrap;html=1;align=center;aspect=fixed;fillColor=none;strokeColor=none;resizable=0;perimeter=centerPerimeter;rotatable=0;allowArrows=0;points=[];outlineConnect=1;" vertex="1" parent="1">
          <mxGeometry x="1270" y="760" width="10" height="10" as="geometry" />
        </mxCell>
        <mxCell id="GxNj5G7-c9G8TD5QoxdH-10" value="Currency" style="swimlane;fontStyle=1;align=center;verticalAlign=top;childLayout=stackLayout;horizontal=1;startSize=26;horizontalStack=0;resizeParent=1;resizeParentMax=0;resizeLast=0;collapsible=1;marginBottom=0;whiteSpace=wrap;html=1;" vertex="1" parent="1">
          <mxGeometry x="1340" y="650" width="260" height="260" as="geometry" />
        </mxCell>
        <mxCell id="GxNj5G7-c9G8TD5QoxdH-11" value="- name: String&lt;br&gt;- code: String&lt;br&gt;- rate: Double&lt;br&gt;- factorRate: Double" style="text;strokeColor=none;fillColor=none;align=left;verticalAlign=top;spacingLeft=4;spacingRight=4;overflow=hidden;rotatable=0;points=[[0,0.5],[1,0.5]];portConstraint=eastwest;whiteSpace=wrap;html=1;" vertex="1" parent="GxNj5G7-c9G8TD5QoxdH-10">
          <mxGeometry y="26" width="260" height="74" as="geometry" />
        </mxCell>
        <mxCell id="GxNj5G7-c9G8TD5QoxdH-12" value="" style="line;strokeWidth=1;fillColor=none;align=left;verticalAlign=middle;spacingTop=-1;spacingLeft=3;spacingRight=3;rotatable=0;labelPosition=right;points=[];portConstraint=eastwest;strokeColor=inherit;" vertex="1" parent="GxNj5G7-c9G8TD5QoxdH-10">
          <mxGeometry y="100" width="260" height="8" as="geometry" />
        </mxCell>
        <mxCell id="GxNj5G7-c9G8TD5QoxdH-13" value="+ getName(): String&lt;br&gt;+ setName(String): void&lt;br&gt;+ getCode(): String&lt;br&gt;+ getRate(): Double&lt;br&gt;+ setRate(Double): void&lt;br&gt;+ getFactorRate(): Double&lt;br&gt;+ setFactorRate(Double): void&lt;br&gt;+ equals(Object): boolean&lt;br&gt;+ hashCode(): int" style="text;strokeColor=none;fillColor=none;align=left;verticalAlign=top;spacingLeft=4;spacingRight=4;overflow=hidden;rotatable=0;points=[[0,0.5],[1,0.5]];portConstraint=eastwest;whiteSpace=wrap;html=1;" vertex="1" parent="GxNj5G7-c9G8TD5QoxdH-10">
          <mxGeometry y="108" width="260" height="152" as="geometry" />
        </mxCell>
        <mxCell id="GxNj5G7-c9G8TD5QoxdH-14" value="XmlEntity" style="swimlane;fontStyle=1;align=center;verticalAlign=top;childLayout=stackLayout;horizontal=1;startSize=26;horizontalStack=0;resizeParent=1;resizeParentMax=0;resizeLast=0;collapsible=1;marginBottom=0;whiteSpace=wrap;html=1;" vertex="1" parent="1">
          <mxGeometry x="810" y="1130" width="350" height="190" as="geometry" />
        </mxCell>
        <mxCell id="GxNj5G7-c9G8TD5QoxdH-15" value="- tableNumber: String&lt;br&gt;- publishDate: String&lt;br&gt;- currencyList: List&amp;lt;Currency&amp;gt;" style="text;strokeColor=none;fillColor=none;align=left;verticalAlign=top;spacingLeft=4;spacingRight=4;overflow=hidden;rotatable=0;points=[[0,0.5],[1,0.5]];portConstraint=eastwest;whiteSpace=wrap;html=1;" vertex="1" parent="GxNj5G7-c9G8TD5QoxdH-14">
          <mxGeometry y="26" width="350" height="54" as="geometry" />
        </mxCell>
        <mxCell id="GxNj5G7-c9G8TD5QoxdH-16" value="" style="line;strokeWidth=1;fillColor=none;align=left;verticalAlign=middle;spacingTop=-1;spacingLeft=3;spacingRight=3;rotatable=0;labelPosition=right;points=[];portConstraint=eastwest;strokeColor=inherit;" vertex="1" parent="GxNj5G7-c9G8TD5QoxdH-14">
          <mxGeometry y="80" width="350" height="8" as="geometry" />
        </mxCell>
        <mxCell id="GxNj5G7-c9G8TD5QoxdH-17" value="+ getTableNumber(): String&lt;br&gt;+ setTableNumber(String): void&lt;br&gt;+ getPublishDate(): String&lt;br&gt;+ setPublishDate(String): void&lt;br&gt;+ getCurrencyList(void): List&amp;lt;Currency&amp;gt;&lt;br&gt;+ setCurrencyList(List&amp;lt;Currency&amp;gt;)" style="text;strokeColor=none;fillColor=none;align=left;verticalAlign=top;spacingLeft=4;spacingRight=4;overflow=hidden;rotatable=0;points=[[0,0.5],[1,0.5]];portConstraint=eastwest;whiteSpace=wrap;html=1;" vertex="1" parent="GxNj5G7-c9G8TD5QoxdH-14">
          <mxGeometry y="88" width="350" height="102" as="geometry" />
        </mxCell>
        <mxCell id="GxNj5G7-c9G8TD5QoxdH-20" value="" style="endArrow=block;dashed=1;html=1;dashPattern=1 3;strokeWidth=2;rounded=0;exitX=1;exitY=-0.1;exitDx=0;exitDy=0;exitPerimeter=0;entryX=0;entryY=0.216;entryDx=0;entryDy=0;entryPerimeter=0;endFill=1;" edge="1" parent="1" source="pc3H7Vz2aSoduVJGx9uI-107" target="GxNj5G7-c9G8TD5QoxdH-17">
          <mxGeometry width="50" height="50" relative="1" as="geometry">
            <mxPoint x="900" y="1170" as="sourcePoint" />
            <mxPoint x="950" y="1120" as="targetPoint" />
          </mxGeometry>
        </mxCell>
        <mxCell id="GxNj5G7-c9G8TD5QoxdH-21" value="uses" style="edgeLabel;html=1;align=center;verticalAlign=middle;resizable=0;points=[];" vertex="1" connectable="0" parent="GxNj5G7-c9G8TD5QoxdH-20">
          <mxGeometry x="-0.3636" y="-3" relative="1" as="geometry">
            <mxPoint y="-1" as="offset" />
          </mxGeometry>
        </mxCell>
        <mxCell id="GxNj5G7-c9G8TD5QoxdH-23" value="Currency" style="swimlane;fontStyle=1;align=center;verticalAlign=top;childLayout=stackLayout;horizontal=1;startSize=26;horizontalStack=0;resizeParent=1;resizeParentMax=0;resizeLast=0;collapsible=1;marginBottom=0;whiteSpace=wrap;html=1;" vertex="1" parent="1">
          <mxGeometry x="1320" y="1130" width="260" height="260" as="geometry" />
        </mxCell>
        <mxCell id="GxNj5G7-c9G8TD5QoxdH-24" value="- name: String&lt;br&gt;- code: String&lt;br&gt;- rate: Double&lt;br&gt;- factorRate: Double" style="text;strokeColor=none;fillColor=none;align=left;verticalAlign=top;spacingLeft=4;spacingRight=4;overflow=hidden;rotatable=0;points=[[0,0.5],[1,0.5]];portConstraint=eastwest;whiteSpace=wrap;html=1;" vertex="1" parent="GxNj5G7-c9G8TD5QoxdH-23">
          <mxGeometry y="26" width="260" height="74" as="geometry" />
        </mxCell>
        <mxCell id="GxNj5G7-c9G8TD5QoxdH-25" value="" style="line;strokeWidth=1;fillColor=none;align=left;verticalAlign=middle;spacingTop=-1;spacingLeft=3;spacingRight=3;rotatable=0;labelPosition=right;points=[];portConstraint=eastwest;strokeColor=inherit;" vertex="1" parent="GxNj5G7-c9G8TD5QoxdH-23">
          <mxGeometry y="100" width="260" height="8" as="geometry" />
        </mxCell>
        <mxCell id="GxNj5G7-c9G8TD5QoxdH-26" value="+ getName(): String&lt;br&gt;+ setName(String): void&lt;br&gt;+ getCode(): String&lt;br&gt;+ getRate(): Double&lt;br&gt;+ setRate(Double): void&lt;br&gt;+ getFactorRate(): Double&lt;br&gt;+ setFactorRate(Double): void&lt;br&gt;+ equals(Object): boolean&lt;br&gt;+ hashCode(): int" style="text;strokeColor=none;fillColor=none;align=left;verticalAlign=top;spacingLeft=4;spacingRight=4;overflow=hidden;rotatable=0;points=[[0,0.5],[1,0.5]];portConstraint=eastwest;whiteSpace=wrap;html=1;" vertex="1" parent="GxNj5G7-c9G8TD5QoxdH-23">
          <mxGeometry y="108" width="260" height="152" as="geometry" />
        </mxCell>
        <mxCell id="GxNj5G7-c9G8TD5QoxdH-32" value="" style="endArrow=block;dashed=1;html=1;dashPattern=1 3;strokeWidth=2;rounded=0;entryX=-0.003;entryY=1.058;entryDx=0;entryDy=0;entryPerimeter=0;exitX=0.998;exitY=0.151;exitDx=0;exitDy=0;exitPerimeter=0;endFill=1;" edge="1" parent="1" source="GxNj5G7-c9G8TD5QoxdH-17" target="GxNj5G7-c9G8TD5QoxdH-24">
          <mxGeometry width="50" height="50" relative="1" as="geometry">
            <mxPoint x="1160" y="1220" as="sourcePoint" />
            <mxPoint x="1210" y="1170" as="targetPoint" />
          </mxGeometry>
        </mxCell>
        <mxCell id="GxNj5G7-c9G8TD5QoxdH-33" value="subclass" style="edgeLabel;html=1;align=center;verticalAlign=middle;resizable=0;points=[];" vertex="1" connectable="0" parent="GxNj5G7-c9G8TD5QoxdH-32">
          <mxGeometry x="-0.3477" y="2" relative="1" as="geometry">
            <mxPoint as="offset" />
          </mxGeometry>
        </mxCell>
        <mxCell id="GxNj5G7-c9G8TD5QoxdH-34" value="&amp;lt;&amp;lt;enum&amp;gt;&amp;gt;&lt;br&gt;InputOptionsEnum" style="swimlane;fontStyle=1;align=center;verticalAlign=top;childLayout=stackLayout;horizontal=1;startSize=40;horizontalStack=0;resizeParent=1;resizeParentMax=0;resizeLast=0;collapsible=1;marginBottom=0;whiteSpace=wrap;html=1;" vertex="1" parent="1">
          <mxGeometry x="875" y="1325" width="220" height="100" as="geometry" />
        </mxCell>
        <mxCell id="GxNj5G7-c9G8TD5QoxdH-35" value="ADD, REMOVE, CONVERT, QUIT" style="text;strokeColor=none;fillColor=none;align=left;verticalAlign=top;spacingLeft=4;spacingRight=4;overflow=hidden;rotatable=0;points=[[0,0.5],[1,0.5]];portConstraint=eastwest;whiteSpace=wrap;html=1;" vertex="1" parent="GxNj5G7-c9G8TD5QoxdH-34">
          <mxGeometry y="40" width="220" height="26" as="geometry" />
        </mxCell>
        <mxCell id="GxNj5G7-c9G8TD5QoxdH-36" value="" style="line;strokeWidth=1;fillColor=none;align=left;verticalAlign=middle;spacingTop=-1;spacingLeft=3;spacingRight=3;rotatable=0;labelPosition=right;points=[];portConstraint=eastwest;strokeColor=inherit;" vertex="1" parent="GxNj5G7-c9G8TD5QoxdH-34">
          <mxGeometry y="66" width="220" height="8" as="geometry" />
        </mxCell>
        <mxCell id="GxNj5G7-c9G8TD5QoxdH-37" value="+ getValue(): String" style="text;strokeColor=none;fillColor=none;align=left;verticalAlign=top;spacingLeft=4;spacingRight=4;overflow=hidden;rotatable=0;points=[[0,0.5],[1,0.5]];portConstraint=eastwest;whiteSpace=wrap;html=1;" vertex="1" parent="GxNj5G7-c9G8TD5QoxdH-34">
          <mxGeometry y="74" width="220" height="26" as="geometry" />
        </mxCell>
        <mxCell id="GxNj5G7-c9G8TD5QoxdH-45" value="" style="edgeStyle=orthogonalEdgeStyle;rounded=0;orthogonalLoop=1;jettySize=auto;html=1;entryX=1.005;entryY=-0.042;entryDx=0;entryDy=0;entryPerimeter=0;endArrow=none;endFill=0;" edge="1" parent="1" source="GxNj5G7-c9G8TD5QoxdH-40" target="pc3H7Vz2aSoduVJGx9uI-126">
          <mxGeometry relative="1" as="geometry" />
        </mxCell>
        <mxCell id="GxNj5G7-c9G8TD5QoxdH-40" value="&amp;lt;&amp;lt;enum&amp;gt;&amp;gt;&lt;br&gt;InputOptionsEnum" style="swimlane;fontStyle=1;align=center;verticalAlign=top;childLayout=stackLayout;horizontal=1;startSize=40;horizontalStack=0;resizeParent=1;resizeParentMax=0;resizeLast=0;collapsible=1;marginBottom=0;whiteSpace=wrap;html=1;" vertex="1" parent="1">
          <mxGeometry x="1080" y="1500" width="220" height="66" as="geometry" />
        </mxCell>
        <mxCell id="GxNj5G7-c9G8TD5QoxdH-41" value="CONTINUE, ABORT, UNKNOWN" style="text;strokeColor=none;fillColor=none;align=left;verticalAlign=top;spacingLeft=4;spacingRight=4;overflow=hidden;rotatable=0;points=[[0,0.5],[1,0.5]];portConstraint=eastwest;whiteSpace=wrap;html=1;" vertex="1" parent="GxNj5G7-c9G8TD5QoxdH-40">
          <mxGeometry y="40" width="220" height="26" as="geometry" />
        </mxCell>
        <mxCell id="GxNj5G7-c9G8TD5QoxdH-44" value="" style="endArrow=none;html=1;rounded=0;exitX=0.998;exitY=0.161;exitDx=0;exitDy=0;exitPerimeter=0;entryX=0.491;entryY=1.058;entryDx=0;entryDy=0;entryPerimeter=0;" edge="1" parent="1" source="pc3H7Vz2aSoduVJGx9uI-132" target="GxNj5G7-c9G8TD5QoxdH-41">
          <mxGeometry width="50" height="50" relative="1" as="geometry">
            <mxPoint x="1000" y="1480" as="sourcePoint" />
            <mxPoint x="1070" y="1530" as="targetPoint" />
            <Array as="points">
              <mxPoint x="1188" y="1580" />
            </Array>
          </mxGeometry>
        </mxCell>
        <mxCell id="GxNj5G7-c9G8TD5QoxdH-46" value="" style="endArrow=none;html=1;rounded=0;exitX=0.998;exitY=0.058;exitDx=0;exitDy=0;exitPerimeter=0;entryX=1;entryY=0.344;entryDx=0;entryDy=0;entryPerimeter=0;" edge="1" parent="1" source="pc3H7Vz2aSoduVJGx9uI-124" target="GxNj5G7-c9G8TD5QoxdH-34">
          <mxGeometry width="50" height="50" relative="1" as="geometry">
            <mxPoint x="1060" y="1470" as="sourcePoint" />
            <mxPoint x="1100" y="1360" as="targetPoint" />
            <Array as="points">
              <mxPoint x="1110" y="1457" />
              <mxPoint x="1110" y="1359" />
            </Array>
          </mxGeometry>
        </mxCell>
        <mxCell id="GxNj5G7-c9G8TD5QoxdH-50" value="" style="endArrow=block;dashed=1;html=1;dashPattern=1 3;strokeWidth=2;rounded=0;endFill=1;" edge="1" parent="1">
          <mxGeometry width="50" height="50" relative="1" as="geometry">
            <mxPoint x="760" y="210" as="sourcePoint" />
            <mxPoint x="960" y="330" as="targetPoint" />
            <Array as="points">
              <mxPoint x="960" y="210" />
            </Array>
          </mxGeometry>
        </mxCell>
        <mxCell id="GxNj5G7-c9G8TD5QoxdH-62" value="create" style="edgeLabel;html=1;align=center;verticalAlign=middle;resizable=0;points=[];" vertex="1" connectable="0" parent="GxNj5G7-c9G8TD5QoxdH-50">
          <mxGeometry x="0.6134" y="-1" relative="1" as="geometry">
            <mxPoint as="offset" />
          </mxGeometry>
        </mxCell>
        <mxCell id="GxNj5G7-c9G8TD5QoxdH-51" value="&amp;lt;&amp;lt;interface&amp;gt;&amp;gt;&lt;br&gt;Predicate" style="swimlane;fontStyle=1;align=center;verticalAlign=top;childLayout=stackLayout;horizontal=1;startSize=40;horizontalStack=0;resizeParent=1;resizeParentMax=0;resizeLast=0;collapsible=1;marginBottom=0;whiteSpace=wrap;html=1;movable=1;resizable=1;rotatable=1;deletable=1;editable=1;locked=0;connectable=1;swimlaneLine=1;" vertex="1" parent="1">
          <mxGeometry x="910" y="330" width="170" height="70" as="geometry">
            <mxRectangle x="400" y="400" width="130" height="40" as="alternateBounds" />
          </mxGeometry>
        </mxCell>
        <mxCell id="GxNj5G7-c9G8TD5QoxdH-52" value="+ test(T): boolean" style="text;strokeColor=none;fillColor=none;align=left;verticalAlign=top;spacingLeft=4;spacingRight=4;overflow=hidden;rotatable=0;points=[[0,0.5],[1,0.5]];portConstraint=eastwest;whiteSpace=wrap;html=1;" vertex="1" parent="GxNj5G7-c9G8TD5QoxdH-51">
          <mxGeometry y="40" width="170" height="30" as="geometry" />
        </mxCell>
        <mxCell id="GxNj5G7-c9G8TD5QoxdH-53" value="IsShortenedNamePredicate" style="swimlane;fontStyle=1;align=center;verticalAlign=top;childLayout=stackLayout;horizontal=1;startSize=26;horizontalStack=0;resizeParent=1;resizeParentMax=0;resizeLast=0;collapsible=1;marginBottom=0;whiteSpace=wrap;html=1;" vertex="1" parent="1">
          <mxGeometry x="1180" y="355" width="260" height="60" as="geometry" />
        </mxCell>
        <mxCell id="GxNj5G7-c9G8TD5QoxdH-55" value="" style="line;strokeWidth=1;fillColor=none;align=left;verticalAlign=middle;spacingTop=-1;spacingLeft=3;spacingRight=3;rotatable=0;labelPosition=right;points=[];portConstraint=eastwest;strokeColor=inherit;" vertex="1" parent="GxNj5G7-c9G8TD5QoxdH-53">
          <mxGeometry y="26" width="260" height="8" as="geometry" />
        </mxCell>
        <mxCell id="GxNj5G7-c9G8TD5QoxdH-56" value="+ test(String): boolean" style="text;strokeColor=none;fillColor=none;align=left;verticalAlign=top;spacingLeft=4;spacingRight=4;overflow=hidden;rotatable=0;points=[[0,0.5],[1,0.5]];portConstraint=eastwest;whiteSpace=wrap;html=1;" vertex="1" parent="GxNj5G7-c9G8TD5QoxdH-53">
          <mxGeometry y="34" width="260" height="26" as="geometry" />
        </mxCell>
        <mxCell id="GxNj5G7-c9G8TD5QoxdH-57" value="" style="rounded=0;orthogonalLoop=1;jettySize=auto;html=1;endArrow=halfCircle;endFill=0;endSize=6;strokeWidth=1;sketch=0;" edge="1" target="GxNj5G7-c9G8TD5QoxdH-59" parent="1" source="GxNj5G7-c9G8TD5QoxdH-52">
          <mxGeometry relative="1" as="geometry">
            <mxPoint x="1080" y="435" as="sourcePoint" />
          </mxGeometry>
        </mxCell>
        <mxCell id="GxNj5G7-c9G8TD5QoxdH-58" value="" style="rounded=0;orthogonalLoop=1;jettySize=auto;html=1;endArrow=oval;endFill=0;sketch=0;sourcePerimeterSpacing=0;targetPerimeterSpacing=0;endSize=10;exitX=0;exitY=0.5;exitDx=0;exitDy=0;" edge="1" target="GxNj5G7-c9G8TD5QoxdH-59" parent="1" source="GxNj5G7-c9G8TD5QoxdH-53">
          <mxGeometry relative="1" as="geometry">
            <mxPoint x="1040" y="435" as="sourcePoint" />
          </mxGeometry>
        </mxCell>
        <mxCell id="GxNj5G7-c9G8TD5QoxdH-59" value="" style="ellipse;whiteSpace=wrap;html=1;align=center;aspect=fixed;fillColor=none;strokeColor=none;resizable=0;perimeter=centerPerimeter;rotatable=0;allowArrows=0;points=[];outlineConnect=1;" vertex="1" parent="1">
          <mxGeometry x="1110" y="380" width="10" height="10" as="geometry" />
        </mxCell>
        <mxCell id="GxNj5G7-c9G8TD5QoxdH-67" value="create" style="text;html=1;align=center;verticalAlign=middle;resizable=0;points=[];autosize=1;strokeColor=none;fillColor=none;" vertex="1" parent="1">
          <mxGeometry x="110" y="1358" width="60" height="30" as="geometry" />
        </mxCell>
      </root>
    </mxGraphModel>
  </diagram>
</mxfile>
